<?xml version="1.0" encoding="utf-8"?>
<!-- Generator: Adobe Illustrator 16.0.0, SVG Export Plug-In . SVG Version: 6.00 Build 0)  -->
<!DOCTYPE svg PUBLIC "-//W3C//DTD SVG 1.1//EN" "http://www.w3.org/Graphics/SVG/1.1/DTD/svg11.dtd">
<svg version="1.1" id="Layer_1" xmlns="http://www.w3.org/2000/svg" xmlns:xlink="http://www.w3.org/1999/xlink" x="0px" y="0px"
	 width="32px" height="32px" viewBox="0 0 32 32" enable-background="new 0 0 32 32" xml:space="preserve">
<path d="M23.272,20.596l-2.249-2.25c1.545-2.634,1.19-6.083-1.068-8.341c-2.68-2.681-7.042-2.681-9.723,0
	c-2.68,2.68-2.68,7.042,0,9.723c2.111,2.109,5.261,2.557,7.814,1.345l2.373,2.375c0.787,0.786,2.066,0.786,2.853,0
	S24.059,21.381,23.272,20.596z M18.109,17.88c-1.664,1.661-4.367,1.661-6.029,0c-1.662-1.662-1.662-4.366,0-6.028
	s4.365-1.662,6.027,0S19.771,16.218,18.109,17.88z"/>
</svg>
